# xmcd
#
# Track frame offsets: 
#        150
#        10643
#        28638
#        38090
#        48825
#        64865
#        80385
#        98598
#        110835
#        126573
#        143675
#        155723
#        164095
#        181815
#        202368
#        223085
#        244598
#        256078
#        267025
#        278800
#
# Disc length: 3947 seconds
#
# Revision: 0
# Processed by: cddbd v1.4b42PL1 Copyright (c) Steve Scherf et al.
# Submitted via: ExactAudioCopy v0.90a11
#
DISCID=1e0f6914
DTITLE=Willie Nelson - Willie Nelson - The Collection
DYEAR=1900
DGENRE=
TTITLE0=Blue eyes crying in the Rain
TTITLE1=red headed stranger
TTITLE2=Crazy
TTITLE3=Stormy weather
TTITLE4=Blue skies
TTITLE5=Homeward bound
TTITLE6=Nightlife
TTITLE7=Crazy arms
TTITLE8=Old friends
TTITLE9=Take it to the limit
TTITLE10=Trouble in mind
TTITLE11=The troublemaker
TTITLE12=The healing hands of time
TTITLE13=Will the circle be unbroken
TTITLE14=Bridge over troubled water
TTITLE15=Poncho and Lefty
TTITLE16=On the road again
TTITLE17=Time of the preacher
TTITLE18=Take this job and shove it
TTITLE19=Faded love
EXTD=
EXTT0=
EXTT1=
EXTT2=
EXTT3=
EXTT4=
EXTT5=
EXTT6=
EXTT7=
EXTT8=
EXTT9=
EXTT10=
EXTT11=
EXTT12=
EXTT13=
EXTT14=
EXTT15=
EXTT16=
EXTT17=
EXTT18=
EXTT19=
PLAYORDER=
